<?xml version="1.0" ?><!-- Uploaded to: SVG Repo, www.svgrepo.com, Generator: SVG Repo Mixer Tools -->
<svg width="800px" height="800px" viewBox="0 0 2050 2050" data-name="Layer 3" id="Layer_3" xmlns="http://www.w3.org/2000/svg"><defs><style>.cls-1{fill:#4d4d4d;}</style></defs><title/><path class="cls-1" d="M1124.7,1321.7a44.7,44.7,0,0,1-31.8-13.2l-351-351a44.9,44.9,0,0,1,0-63.6,290.9,290.9,0,0,1,296.5-70.6l193.7-193.6a44.9,44.9,0,0,1,63.6,0l127.2,127.2a44.9,44.9,0,0,1,0,63.6l-194.8,194.8a290.5,290.5,0,0,1-71.6,293.2A44.8,44.8,0,0,1,1124.7,1321.7Z"/><path class="cls-1" d="M1464.1,906.6a45.2,45.2,0,0,1-31.9-13.1L1156.9,618.2a45,45,0,0,1-3.6-59.5l95.9-123.3a45.5,45.5,0,0,1,32.8-17.2,44.9,44.9,0,0,1,34.6,13.1l302.5,302.5a44.9,44.9,0,0,1,13.1,34.6,45.5,45.5,0,0,1-17.2,32.8l-123.3,95.9A44.6,44.6,0,0,1,1464.1,906.6Z"/><path class="cls-1" d="M716.1,1379.3a45.1,45.1,0,0,1-31.8-76.9l223.9-223.8a45,45,0,0,1,63.6,63.6L748,1366.1A44.9,44.9,0,0,1,716.1,1379.3Z"/><path class="cls-1" d="M987.9,1649.5a567,567,0,1,1,0-1133.9,45,45,0,1,1,0,90,477.3,477.3,0,1,0,476.9,476.9,45,45,0,0,1,90,0,566.5,566.5,0,0,1-566.9,567Z"/></svg>